<svg width="360" height="88" viewBox="0 0 360 88" fill="none" xmlns="http://www.w3.org/2000/svg">
<path fill-rule="evenodd" clip-rule="evenodd" d="M21 4C18.7909 4 17 5.79086 17 8V72C17 74.2091 18.7909 76 21 76L93 84C95.2091 84 97 82.2091 97 80V16C97 13.7909 95.2091 12 93 12L21 4ZM37 27C37 26.4477 37.4477 26 38 26H76C76.5523 26 77 26.4477 77 27V33C77 33.5523 76.5523 34 76 34H38C37.4477 34 37 33.5523 37 33V27ZM37.4238 38.9259C37.4815 38.3766 37.9736 37.9781 38.5228 38.0359L76.3147 42.0079C76.8639 42.0657 77.2624 42.5577 77.2047 43.107L76.5775 49.0741C76.5198 49.6234 76.0277 50.0219 75.4784 49.9641L37.6866 45.992C37.1374 45.9343 36.7389 45.4422 36.7966 44.893L37.4238 38.9259ZM38 54C37.4477 54 37 54.4477 37 55V61C37 61.5523 37.4477 62 38 62H76C76.5523 62 77 61.5523 77 61V55C77 54.4477 76.5523 54 76 54H38Z" fill="white"/>
<path d="M133.08 65.32C129.8 65.32 126.94 64.8 124.5 63.76C122.1 62.72 120.26 61.36 118.98 59.68C117.74 57.96 117.08 56.12 117 54.16C117 53.84 117.12 53.56 117.36 53.32C117.6 53.08 117.9 52.96 118.26 52.96H121.2C121.92 52.96 122.42 53.36 122.7 54.16C123.06 55.84 124.08 57.3 125.76 58.54C127.48 59.74 129.92 60.34 133.08 60.34C136.48 60.34 139.02 59.74 140.7 58.54C142.38 57.34 143.22 55.68 143.22 53.56C143.22 52.2 142.8 51.08 141.96 50.2C141.16 49.32 139.94 48.56 138.3 47.92C136.7 47.24 134.28 46.42 131.04 45.46C127.96 44.58 125.5 43.64 123.66 42.64C121.86 41.64 120.5 40.42 119.58 38.98C118.66 37.5 118.2 35.64 118.2 33.4C118.2 31.24 118.78 29.32 119.94 27.64C121.1 25.92 122.78 24.58 124.98 23.62C127.18 22.62 129.78 22.12 132.78 22.12C135.9 22.12 138.56 22.68 140.76 23.8C143 24.88 144.7 26.26 145.86 27.94C147.02 29.58 147.64 31.24 147.72 32.92C147.72 33.28 147.6 33.58 147.36 33.82C147.12 34.06 146.82 34.18 146.46 34.18H143.46C143.14 34.18 142.84 34.08 142.56 33.88C142.28 33.68 142.08 33.38 141.96 32.98C141.72 31.26 140.76 29.84 139.08 28.72C137.4 27.6 135.3 27.04 132.78 27.04C130.06 27.04 127.9 27.58 126.3 28.66C124.7 29.7 123.9 31.26 123.9 33.34C123.9 34.74 124.26 35.88 124.98 36.76C125.74 37.64 126.88 38.42 128.4 39.1C129.96 39.78 132.22 40.56 135.18 41.44C138.58 42.4 141.24 43.36 143.16 44.32C145.12 45.28 146.58 46.48 147.54 47.92C148.5 49.32 148.98 51.14 148.98 53.38C148.98 57.14 147.54 60.08 144.66 62.2C141.82 64.28 137.96 65.32 133.08 65.32Z" fill="white"/>
<path d="M158.227 64.72C157.827 64.72 157.507 64.6 157.267 64.36C157.027 64.08 156.907 63.74 156.907 63.34V24.1C156.907 23.7 157.027 23.38 157.267 23.14C157.507 22.86 157.827 22.72 158.227 22.72H161.227C161.667 22.72 162.007 22.84 162.247 23.08C162.487 23.32 162.607 23.66 162.607 24.1V63.34C162.607 63.74 162.467 64.08 162.187 64.36C161.947 64.6 161.627 64.72 161.227 64.72H158.227Z" fill="white"/>
<path d="M183.756 64.72C183.356 64.72 183.016 64.6 182.736 64.36C182.496 64.08 182.376 63.74 182.376 63.34V27.88H170.796C170.396 27.88 170.056 27.76 169.776 27.52C169.536 27.24 169.416 26.9 169.416 26.5V24.16C169.416 23.72 169.536 23.38 169.776 23.14C170.056 22.86 170.396 22.72 170.796 22.72H199.596C200.036 22.72 200.376 22.86 200.616 23.14C200.856 23.38 200.976 23.72 200.976 24.16V26.5C200.976 26.9 200.836 27.24 200.556 27.52C200.316 27.76 199.996 27.88 199.596 27.88H188.076V63.34C188.076 63.74 187.936 64.08 187.656 64.36C187.376 64.6 187.036 64.72 186.636 64.72H183.756Z" fill="white"/>
<path d="M209.145 64.72C208.745 64.72 208.425 64.6 208.185 64.36C207.945 64.08 207.825 63.74 207.825 63.34V24.16C207.825 23.72 207.945 23.38 208.185 23.14C208.425 22.86 208.745 22.72 209.145 22.72H233.805C234.245 22.72 234.585 22.86 234.825 23.14C235.105 23.38 235.245 23.72 235.245 24.16V26.32C235.245 26.72 235.105 27.04 234.825 27.28C234.585 27.52 234.245 27.64 233.805 27.64H213.345V41.02H232.485C232.925 41.02 233.265 41.16 233.505 41.44C233.785 41.68 233.925 42.02 233.925 42.46V44.5C233.925 44.9 233.785 45.24 233.505 45.52C233.265 45.76 232.925 45.88 232.485 45.88H213.345V59.74H234.285C234.725 59.74 235.065 59.88 235.305 60.16C235.585 60.4 235.725 60.74 235.725 61.18V63.34C235.725 63.74 235.585 64.08 235.305 64.36C235.025 64.6 234.685 64.72 234.285 64.72H209.145Z" fill="white"/>
<path d="M260.293 64.72C259.893 64.72 259.553 64.58 259.273 64.3C258.993 64.02 258.853 63.68 258.853 63.28V32.32L249.793 39.28C249.553 39.48 249.253 39.58 248.893 39.58C248.413 39.58 248.033 39.38 247.753 38.98L245.173 35.62C244.973 35.34 244.873 35.06 244.873 34.78C244.873 34.3 245.093 33.9 245.533 33.58L258.973 23.14C259.413 22.86 259.913 22.72 260.473 22.72H265.873C266.273 22.72 266.613 22.86 266.893 23.14C267.173 23.42 267.313 23.76 267.313 24.16V63.28C267.313 63.68 267.173 64.02 266.893 64.3C266.613 64.58 266.273 64.72 265.873 64.72H260.293Z" fill="white"/>
<path d="M275.645 64.72C275.245 64.72 274.905 64.58 274.625 64.3C274.345 64.02 274.205 63.68 274.205 63.28V60.16C274.205 59.04 274.705 58.1 275.705 57.34L285.065 48.04C287.905 45.8 290.085 43.98 291.605 42.58C293.165 41.14 294.325 39.82 295.085 38.62C295.845 37.42 296.225 36.24 296.225 35.08C296.225 33.2 295.725 31.72 294.725 30.64C293.725 29.56 292.205 29.02 290.165 29.02C288.165 29.02 286.585 29.62 285.425 30.82C284.305 31.98 283.605 33.5 283.325 35.38C283.205 35.86 282.965 36.22 282.605 36.46C282.285 36.66 281.925 36.76 281.525 36.76H276.125C275.765 36.76 275.465 36.64 275.225 36.4C274.985 36.16 274.865 35.86 274.865 35.5C274.945 33.14 275.585 30.94 276.785 28.9C278.025 26.82 279.785 25.16 282.065 23.92C284.345 22.64 287.025 22 290.105 22C293.305 22 296.025 22.56 298.265 23.68C300.505 24.76 302.185 26.26 303.305 28.18C304.425 30.1 304.985 32.28 304.985 34.72C304.985 37.4 304.225 39.84 302.705 42.04C301.225 44.2 298.905 46.52 295.745 49L287.405 57.46H304.385C304.825 57.46 305.185 57.6 305.465 57.88C305.745 58.16 305.885 58.52 305.885 58.96V63.28C305.885 63.72 305.745 64.08 305.465 64.36C305.185 64.6 304.825 64.72 304.385 64.72H275.645Z" fill="white"/>
<path d="M327.432 65.32C323.872 65.32 320.852 64.76 318.372 63.64C315.932 62.52 314.092 61.12 312.852 59.44C311.652 57.72 311.012 55.96 310.932 54.16C310.932 53.8 311.052 53.5 311.292 53.26C311.532 53.02 311.832 52.9 312.192 52.9H317.712C318.592 52.9 319.192 53.3 319.512 54.1C320.392 56.94 323.032 58.36 327.432 58.36C329.872 58.36 331.772 57.8 333.132 56.68C334.532 55.56 335.232 53.96 335.232 51.88C335.232 49.8 334.592 48.3 333.312 47.38C332.072 46.42 330.232 45.94 327.792 45.94H321.612C321.212 45.94 320.872 45.8 320.592 45.52C320.312 45.24 320.172 44.9 320.172 44.5V41.92C320.172 41.16 320.432 40.56 320.952 40.12L331.632 29.68H314.532C314.092 29.68 313.732 29.54 313.452 29.26C313.172 28.98 313.032 28.64 313.032 28.24V24.22C313.032 23.78 313.172 23.42 313.452 23.14C313.732 22.86 314.092 22.72 314.532 22.72H340.332C340.772 22.72 341.132 22.86 341.412 23.14C341.692 23.42 341.832 23.78 341.832 24.22V27.88C341.832 28.56 341.572 29.12 341.052 29.56L330.732 40.18L331.452 40.24C335.292 40.56 338.332 41.72 340.572 43.72C342.852 45.72 343.992 48.58 343.992 52.3C343.992 54.94 343.272 57.24 341.832 59.2C340.432 61.16 338.472 62.68 335.952 63.76C333.472 64.8 330.632 65.32 327.432 65.32Z" fill="white"/>
</svg>
