<svg version="1.1" id="Layer_1" xmlns="http://www.w3.org/2000/svg" xmlns:xlink="http://www.w3.org/1999/xlink" x="0px" y="0px"
	 width="100%" viewBox="0 0 2048 300" enable-background="new 0 0 2048 300" xml:space="preserve">
<path fill="#000000" opacity="1.000000" stroke="none" 
	d="
M2049.000000,295.000000 
	C2049.000000,296.998840 2049.000000,298.997650 2049.000000,300.998230 
	C1810.974121,301.000000 1572.948364,301.000000 1334.475830,300.587433 
	C1335.208008,299.784637 1336.365601,299.145233 1337.569214,299.041504 
	C1355.703369,297.479309 1373.084839,293.255493 1388.905518,283.975464 
	C1401.656128,276.496277 1410.194824,265.587128 1415.352783,251.617859 
	C1419.265869,241.020355 1417.819580,230.257874 1417.914551,219.550491 
	C1418.106445,197.889206 1406.270386,183.326797 1388.352783,173.415436 
	C1381.229126,169.474884 1372.942627,167.553802 1365.075684,165.059952 
	C1355.026367,161.874359 1344.735840,159.407669 1334.808105,155.898697 
	C1329.809082,154.131775 1323.822876,151.851349 1321.006470,147.874496 
	C1314.243896,138.325241 1315.744873,127.417603 1327.404907,122.472885 
	C1342.444336,116.094971 1357.971802,117.320885 1372.808960,123.545341 
	C1382.958740,127.803398 1392.606812,133.258835 1402.470215,138.196808 
	C1404.312744,139.119232 1406.112549,140.126526 1408.687866,141.496765 
	C1408.821655,138.868652 1408.984497,137.118759 1408.988159,135.368515 
	C1409.011475,124.038383 1408.604736,112.689857 1409.128418,101.383934 
	C1409.527588,92.767868 1408.497314,87.010124 1398.656494,83.319183 
	C1388.908081,79.662941 1379.322266,75.971436 1369.108521,73.983253 
	C1353.065430,70.860352 1336.889526,69.778206 1320.685547,72.122040 
	C1312.885010,73.250351 1305.024292,74.833939 1297.583374,77.365501 
	C1287.101807,80.931549 1277.168457,86.153015 1269.505981,94.293282 
	C1264.042358,100.097633 1258.424194,106.450081 1255.298950,113.615150 
	C1249.135132,127.746452 1247.675415,142.991714 1250.168213,158.324188 
	C1251.089111,163.988205 1252.456909,169.732315 1254.671021,174.998459 
	C1258.214355,183.426743 1264.302856,189.759552 1271.631592,195.559174 
	C1281.065918,203.025162 1291.869995,206.534927 1302.876099,209.919220 
	C1314.666992,213.544769 1326.787720,216.163406 1338.419067,220.213379 
	C1344.259888,222.247101 1350.459961,225.270355 1351.038940,233.262527 
	C1351.798218,243.743408 1346.116943,248.291321 1334.824097,250.886353 
	C1318.934204,254.537781 1303.322754,250.911224 1288.553223,245.808975 
	C1277.359253,241.942017 1267.228516,234.979553 1256.669067,229.311966 
	C1255.048462,228.442123 1253.666992,227.126801 1251.639160,225.619247 
	C1251.348267,227.203491 1251.037964,228.110474 1251.036255,229.018021 
	C1251.005249,246.179825 1250.936768,263.342560 1251.137329,280.502075 
	C1251.155029,282.007507 1252.661865,284.295715 1254.031738,284.850098 
	C1260.866455,287.616241 1267.758057,290.415527 1274.871948,292.276306 
	C1285.058960,294.940918 1295.464844,296.762573 1305.751099,299.061127 
	C1306.920044,299.322357 1307.921143,300.335480 1309.000000,301.000000 
	C1163.307495,301.000000 1017.614990,301.000000 871.479797,300.583557 
	C872.718018,299.777740 874.380127,299.216217 876.083252,299.030396 
	C881.830994,298.403168 887.674561,298.338409 893.331604,297.267151 
	C902.546021,295.522278 911.596619,292.921051 920.800354,291.107819 
	C931.668091,288.966736 940.700439,283.235352 947.695740,275.351105 
	C955.011230,267.105865 958.239258,256.778442 958.125671,245.249542 
	C957.779236,210.088211 958.032959,174.921234 957.955261,139.756668 
	C957.946167,135.636551 957.624634,131.467453 956.937805,127.407364 
	C954.403564,112.426071 947.953064,99.116623 935.877014,89.943871 
	C928.243591,84.145645 919.029663,79.888069 909.910156,76.693848 
	C887.861023,68.970886 865.022461,67.318016 841.761658,69.879517 
	C824.134216,71.820679 806.767395,74.673149 790.112793,80.930382 
	C786.890381,82.141060 784.056641,84.805603 780.792480,85.385422 
	C776.187256,86.203468 775.931335,88.736717 775.957581,92.403107 
	C776.072205,108.401413 775.998657,124.401001 776.019165,140.400101 
	C776.021362,142.125717 776.190247,143.851151 776.313416,146.172623 
	C778.421021,144.910400 779.749390,143.947708 781.209412,143.267395 
	C791.218933,138.603088 800.972900,133.185822 811.351685,129.566864 
	C826.396240,124.320961 841.986450,120.847885 858.127502,124.041763 
	C868.117310,126.018463 877.856079,127.993629 885.300415,136.504013 
	C894.354980,146.855103 893.173706,158.537003 892.691895,171.444565 
	C878.152344,163.691010 863.319824,160.284607 847.897339,158.760559 
	C830.057556,156.997635 812.503235,157.816513 795.529541,163.855560 
	C790.465698,165.657211 785.828979,168.740860 781.128540,171.464783 
	C772.707764,176.344620 767.160400,183.870636 763.077087,192.438187 
	C756.426147,206.393478 755.508606,221.484787 757.359375,236.328522 
	C758.576721,246.092392 762.020508,255.921646 766.268127,264.866455 
	C770.361328,273.486084 777.872070,279.989532 786.142761,284.989624 
	C800.744324,293.816986 817.030029,297.201874 833.749023,299.061432 
	C835.548950,299.261658 837.252014,300.332825 839.000000,301.000000 
	C800.307495,301.000000 761.614990,301.000000 722.389526,300.535522 
	C721.908020,298.408539 722.004456,296.746063 722.004517,295.083557 
	C722.008057,197.055710 722.003601,99.027855 722.000000,1.000000 
	C1164.333374,1.000000 1606.666626,1.000000 2049.000000,1.000000 
	C2049.000000,58.443096 2049.000000,115.760300 2048.634766,173.577545 
	C2047.470825,172.694275 2046.765991,171.245605 2045.856934,169.938934 
	C2041.569458,163.775879 2038.336548,156.252792 2032.695435,151.774765 
	C2015.445557,138.081421 1994.594971,138.299545 1974.225708,140.765015 
	C1963.454956,142.068665 1953.159790,147.078629 1942.538940,150.014160 
	C1940.168579,150.669388 1937.127563,150.177963 1934.756226,149.270935 
	C1930.459106,147.627365 1926.631226,144.576309 1922.260254,143.338028 
	C1903.183716,137.933746 1883.831665,138.630173 1864.716553,142.815399 
	C1854.963745,144.950745 1845.647339,149.023071 1836.041992,151.915421 
	C1831.966919,153.142532 1830.897583,155.383026 1830.911255,159.485138 
	C1831.055420,202.639420 1830.996338,245.794357 1831.012939,288.949127 
	C1831.013672,290.863831 1831.203369,292.778442 1831.296021,294.522430 
	C1838.870728,294.522430 1845.763062,294.522430 1853.000000,294.522430 
	C1853.000000,292.060974 1853.000000,290.075439 1853.000000,288.089874 
	C1853.000000,249.600494 1853.067017,211.110809 1852.901367,172.622147 
	C1852.883911,168.549133 1854.170288,167.093414 1858.017334,165.857819 
	C1873.084717,161.018753 1888.541870,161.871246 1903.945679,162.075027 
	C1913.003052,162.194855 1926.391113,171.408356 1928.458984,179.250031 
	C1930.256836,186.067810 1931.617188,193.174652 1931.845947,200.196930 
	C1932.344727,215.509781 1931.999512,230.850128 1931.999756,246.179230 
	C1932.000000,261.008484 1931.928345,275.838654 1932.117554,290.665497 
	C1932.135986,292.109039 1933.702881,294.719910 1934.662598,294.773102 
	C1941.244507,295.137726 1947.856323,294.964508 1955.000000,294.964508 
	C1955.000000,292.293518 1955.000000,290.334869 1955.000000,288.376221 
	C1955.000000,263.716339 1955.117432,239.055695 1954.955322,214.396896 
	C1954.860718,200.030609 1956.566162,185.502502 1951.284302,171.134598 
	C1956.896362,168.659561 1961.968872,165.185135 1967.466797,164.271622 
	C1977.037354,162.681427 1986.863770,162.261856 1996.594727,162.110138 
	C2006.928101,161.949036 2014.834351,167.336472 2020.656128,175.457642 
	C2025.526978,182.252426 2026.907959,190.373550 2026.945435,198.548599 
	C2027.083130,228.539703 2027.000000,258.531830 2027.000000,288.523560 
	C2027.000000,290.468628 2027.000000,292.413696 2027.000000,295.000000 
	C2034.770630,295.000000 2041.885254,295.000000 2049.000000,295.000000 
M1085.446289,125.938545 
	C1096.567871,122.996094 1107.927856,122.780136 1118.965088,125.301071 
	C1134.145142,128.768250 1144.330322,140.556732 1144.164551,156.414108 
	C1143.709595,199.904755 1144.078857,243.403564 1143.906494,286.898315 
	C1143.887817,291.584686 1144.926880,293.198761 1149.906616,293.115814 
	C1168.066406,292.813416 1186.234131,292.999023 1204.398926,292.995026 
	C1210.981445,292.993561 1210.991577,292.986328 1210.992065,286.596619 
	C1210.994751,240.934753 1211.088867,195.272507 1210.901245,149.611420 
	C1210.868774,141.701691 1210.479614,133.611313 1208.786987,125.927803 
	C1205.074951,109.077248 1198.678467,93.484428 1182.559937,84.358818 
	C1177.140137,81.290337 1171.667358,77.691208 1165.752563,76.253212 
	C1154.087036,73.417183 1142.163086,71.006676 1130.220337,70.126854 
	C1118.091431,69.233330 1105.760010,69.800812 1093.612549,70.841820 
	C1083.290649,71.726402 1073.139160,74.439186 1062.850586,75.911385 
	C1044.253784,78.572426 1026.570312,84.213821 1009.244202,91.277306 
	C1005.008362,93.004181 1003.891296,95.571175 1003.902100,100.011436 
	C1004.053284,162.171188 1004.004578,224.331421 1004.004639,286.491547 
	C1004.004639,288.438690 1004.004761,290.385803 1004.004761,292.660889 
	C1025.882935,292.660889 1047.102539,292.660889 1068.947754,292.660889 
	C1068.947754,238.448502 1068.947754,184.548630 1068.947754,130.830231 
	C1074.581787,129.089767 1079.594971,127.541130 1085.446289,125.938545 
M1797.188599,208.182953 
	C1796.964233,198.155426 1794.028320,188.796280 1790.803101,179.377380 
	C1785.699585,164.473587 1775.710938,154.274780 1762.143311,147.055191 
	C1749.047241,140.086487 1734.885864,139.791016 1720.520996,139.909653 
	C1706.527466,140.025223 1694.260742,145.107956 1683.095703,152.649170 
	C1672.835938,159.578934 1666.783691,169.951309 1662.885742,181.729691 
	C1657.432861,198.206940 1656.291504,214.886444 1657.750610,232.144318 
	C1658.844482,245.082657 1662.133545,257.387268 1667.740356,268.630005 
	C1674.848267,282.882629 1687.242554,291.674377 1702.818115,296.252045 
	C1714.607178,299.716919 1726.524170,299.453949 1738.370605,298.766968 
	C1748.938354,298.154114 1759.050659,294.382538 1767.839600,288.390961 
	C1777.969238,281.485443 1785.138916,272.069427 1789.911255,260.539307 
	C1796.791626,243.916168 1799.007935,226.803452 1797.188599,208.182953 
M1517.453979,244.900650 
	C1521.110474,258.610626 1525.896362,271.764801 1537.153320,281.297180 
	C1543.184204,286.404144 1549.814331,290.195465 1557.645874,292.605042 
	C1571.899170,296.990356 1586.189331,298.234009 1600.773682,296.109619 
	C1609.900269,294.780304 1618.929321,292.732483 1627.948242,290.760345 
	C1629.423584,290.437744 1631.714722,288.889648 1631.766846,287.817627 
	C1632.110229,280.742249 1631.944092,273.642151 1631.944092,266.179718 
	C1626.686646,267.662933 1622.118286,268.973083 1617.537964,270.239990 
	C1600.574463,274.932129 1583.755371,276.393066 1566.457031,270.904419 
	C1551.158691,266.050354 1544.568359,254.763153 1541.044189,240.619827 
	C1537.704346,227.216644 1537.956055,213.519302 1540.212280,200.104568 
	C1542.857910,184.374039 1550.322998,171.784683 1566.552612,165.900894 
	C1581.679565,160.416946 1596.771484,161.403564 1611.920044,164.955582 
	C1618.445923,166.485764 1624.763916,168.903214 1631.999023,171.176010 
	C1631.999023,164.796097 1631.830933,159.021805 1632.062744,153.263626 
	C1632.198730,149.891541 1630.887451,148.272995 1627.802490,146.993698 
	C1610.958252,140.008621 1593.265259,138.840439 1575.508545,140.232651 
	C1562.572510,141.246872 1550.157227,145.545471 1539.858032,153.745758 
	C1533.783813,158.582184 1528.771851,164.469772 1525.120850,171.903351 
	C1518.847778,184.675827 1515.137329,197.861404 1515.147095,211.904343 
	C1515.154663,222.637405 1516.444214,233.369583 1517.453979,244.900650 
M1451.210327,294.426270 
	C1460.993652,294.599609 1470.777100,294.844299 1480.559814,294.814911 
	C1481.368652,294.812500 1482.849731,292.967712 1482.871582,291.954376 
	C1483.057129,283.307190 1483.075073,274.651764 1482.846802,266.006561 
	C1482.819824,264.987946 1481.026123,263.179565 1480.015869,263.154266 
	C1471.037598,262.929321 1462.049805,262.947205 1453.069702,263.129456 
	C1452.051392,263.150146 1450.195679,264.621887 1450.192505,265.426544 
	C1450.155518,274.877441 1450.398560,284.329437 1451.210327,294.426270 
z"/>
<path fill="#000000" opacity="1.000000" stroke="none" 
	d="
M365.000000,301.000000 
	C360.643097,301.000000 356.286194,301.000000 351.463562,300.531342 
	C350.942749,282.699554 350.887665,265.336395 350.904694,247.511230 
	C350.984161,239.717682 350.886719,232.384171 351.028442,225.055283 
	C351.168976,217.788635 356.462189,214.300079 362.058868,211.672043 
	C365.702423,209.961151 369.775116,210.364517 373.022186,213.475174 
	C376.339874,216.653488 379.180237,220.814362 383.113129,222.748138 
	C388.473083,225.383575 394.768402,227.898590 400.481476,227.544189 
	C406.465576,227.173004 412.194855,224.288177 416.625824,218.405975 
	C423.265686,209.591370 424.787811,200.742203 420.870758,191.035645 
	C414.929657,176.313461 399.020538,167.672165 383.931793,179.062729 
	C381.126160,181.180756 378.930084,184.100677 376.146545,186.255020 
	C372.919769,188.752441 369.700867,191.345123 364.918518,190.103287 
	C357.340973,188.135620 352.015869,181.752060 351.991791,173.995255 
	C351.981476,170.666382 351.889374,167.337799 351.884399,163.765518 
	C351.934387,163.521957 351.833923,163.034332 351.897919,162.567383 
	C351.923065,134.719360 351.884186,107.338272 351.906128,79.494705 
	C351.922058,60.013920 351.877197,40.995613 351.890045,21.730530 
	C351.909668,21.319139 351.871643,21.154520 351.697266,20.579166 
	C332.051270,20.165276 312.541595,20.162121 292.663177,20.084328 
	C290.898712,20.434753 289.503052,20.859818 287.642700,21.178883 
	C283.350067,21.048660 279.512543,21.189964 275.695862,20.969505 
	C263.732880,20.278488 259.130646,27.440624 258.289246,38.034142 
	C257.186157,51.922352 258.110870,65.971626 258.109680,80.420975 
	C258.087433,91.233803 258.118958,101.577286 258.109131,112.392731 
	C258.046265,118.841103 257.654236,124.845711 258.106384,130.786057 
	C258.568512,136.858017 256.216003,141.325378 251.618927,145.009003 
	C249.330704,143.165680 247.249161,141.570038 245.388535,139.748734 
	C240.600021,135.061462 235.790817,130.385330 231.210953,125.497589 
	C226.011978,119.949104 221.240616,113.992897 215.937454,108.551033 
	C210.602097,103.076118 204.754684,98.104004 199.296844,92.743378 
	C195.421814,88.937363 191.821136,84.852058 187.935852,80.591660 
	C185.478302,77.991028 183.149353,75.722519 180.893555,73.383453 
	C172.642075,64.827393 164.449310,56.214485 156.168869,47.686653 
	C148.141968,39.419918 140.283798,30.958506 131.788879,23.198519 
	C129.635223,21.231199 125.340813,21.607409 121.800255,20.541080 
	C99.743660,20.170553 77.916893,20.165707 55.719162,20.119881 
	C53.934380,20.488310 52.520561,20.897720 50.640152,21.206886 
	C45.841545,21.073122 41.480171,20.721724 37.187870,21.118170 
	C34.340591,21.381149 31.301168,22.220062 28.853365,23.660410 
	C21.105169,28.219652 18.672737,42.502804 26.584539,51.919529 
	C30.061245,56.057549 33.810032,59.968475 37.469437,63.951134 
	C43.340630,70.340950 49.240215,76.704674 55.205559,83.397797 
	C61.331055,90.116875 67.448128,96.453857 73.406265,102.936905 
	C78.930443,108.947777 84.242470,115.153160 89.730881,121.197556 
	C92.690063,124.456505 95.901047,127.486664 98.863754,130.742599 
	C109.249565,142.156250 119.576889,153.623154 130.075226,165.393784 
	C135.048386,171.535278 139.724457,177.484238 144.734619,183.137085 
	C151.015640,190.223831 157.567566,197.070618 164.008408,204.015549 
	C170.902527,211.449249 177.805206,218.875046 184.700760,226.307404 
	C188.671280,230.587021 192.694778,234.819565 196.582275,239.173462 
	C199.480927,242.419891 202.199799,245.826828 205.147690,249.458450 
	C206.739410,251.541458 208.081558,253.422043 209.642960,255.098389 
	C215.420639,261.301422 221.350174,267.364380 227.071060,273.618591 
	C232.733337,279.808777 238.231369,286.149933 243.763519,292.458099 
	C246.223648,295.263336 248.590698,298.150208 251.000000,301.000000 
	C167.696884,301.000000 84.393784,301.000000 1.045337,301.000000 
	C1.045337,201.066513 1.045337,101.132996 1.045337,1.000000 
	C219.354187,1.000000 437.708435,1.000000 656.531372,1.468657 
	C657.000000,101.624878 657.000000,201.312439 657.000000,301.000000 
	C589.645752,301.000000 522.291565,301.000000 454.418945,300.649597 
	C459.110291,295.502869 463.228149,290.370117 463.087494,282.559021 
	C462.796600,266.404510 462.929321,250.240662 463.026917,234.081482 
	C463.090607,223.537216 470.720032,216.006592 481.071594,216.001633 
	C497.231354,215.993912 513.392395,216.106827 529.549988,215.920319 
	C533.808838,215.871170 538.191284,215.397369 542.283569,214.270859 
	C551.956909,211.608032 561.507141,208.489792 571.075317,205.455414 
	C582.399841,201.864029 591.840454,194.877960 599.602417,186.422211 
	C606.306091,179.119339 611.343140,170.179657 616.462463,161.574173 
	C619.038208,157.244324 620.822754,152.181519 621.811768,147.220261 
	C624.538513,133.542404 626.301636,119.621124 624.829956,105.714157 
	C623.640137,94.471832 621.869019,83.119354 618.686890,72.306946 
	C615.382935,61.081001 607.809082,51.800095 599.167542,44.105434 
	C593.651123,39.193489 586.372314,36.285957 579.971680,32.337116 
	C564.610718,22.860235 547.272522,20.412802 529.959961,20.217972 
	C477.155884,19.623734 424.340912,19.997955 371.530151,20.015215 
	C369.784637,20.015787 368.039185,20.231853 366.413666,20.339523 
	C366.413666,72.530487 366.413666,124.065216 366.413666,176.403473 
	C367.981934,175.507324 369.109314,175.179916 369.768799,174.437073 
	C376.191559,167.202728 383.586945,161.423965 393.682465,161.385040 
	C400.026306,161.360565 406.894196,161.409134 412.571259,163.746368 
	C417.901459,165.940765 422.380157,170.802261 426.521301,175.166061 
	C436.256531,185.424728 438.353760,198.173843 435.020508,211.255188 
	C433.436615,217.471268 428.821716,223.018112 425.133362,228.571579 
	C419.044067,237.740005 409.466217,241.567368 399.224792,241.727478 
	C388.336700,241.897720 378.165497,238.441330 371.171478,228.885376 
	C369.946198,227.211319 367.788452,226.219742 365.000000,224.109909 
	C365.000000,250.770874 365.000000,275.885437 365.000000,301.000000 
z"/>
<path fill="#344365" opacity="1.000000" stroke="none" 
	d="
M365.468658,301.000000 
	C365.000000,275.885437 365.000000,250.770874 365.000000,224.109909 
	C367.788452,226.219742 369.946198,227.211319 371.171478,228.885376 
	C378.165497,238.441330 388.336700,241.897720 399.224792,241.727478 
	C409.466217,241.567368 419.044067,237.740005 425.133362,228.571579 
	C428.821716,223.018112 433.436615,217.471268 435.020508,211.255188 
	C438.353760,198.173843 436.256531,185.424728 426.521301,175.166061 
	C422.380157,170.802261 417.901459,165.940765 412.571259,163.746368 
	C406.894196,161.409134 400.026306,161.360565 393.682465,161.385040 
	C383.586945,161.423965 376.191559,167.202728 369.768799,174.437073 
	C369.109314,175.179916 367.981934,175.507324 366.413666,176.403473 
	C366.413666,124.065216 366.413666,72.530487 366.413666,20.339523 
	C368.039185,20.231853 369.784637,20.015787 371.530151,20.015215 
	C424.340912,19.997955 477.155884,19.623734 529.959961,20.217972 
	C547.272522,20.412802 564.610718,22.860235 579.971680,32.337116 
	C586.372314,36.285957 593.651123,39.193489 599.167542,44.105434 
	C607.809082,51.800095 615.382935,61.081001 618.686890,72.306946 
	C621.869019,83.119354 623.640137,94.471832 624.829956,105.714157 
	C626.301636,119.621124 624.538513,133.542404 621.811768,147.220261 
	C620.822754,152.181519 619.038208,157.244324 616.462463,161.574173 
	C611.343140,170.179657 606.306091,179.119339 599.602417,186.422211 
	C591.840454,194.877960 582.399841,201.864029 571.075317,205.455414 
	C561.507141,208.489792 551.956909,211.608032 542.283569,214.270859 
	C538.191284,215.397369 533.808838,215.871170 529.549988,215.920319 
	C513.392395,216.106827 497.231354,215.993912 481.071594,216.001633 
	C470.720032,216.006592 463.090607,223.537216 463.026917,234.081482 
	C462.929321,250.240662 462.796600,266.404510 463.087494,282.559021 
	C463.228149,290.370117 459.110291,295.502869 453.950317,300.649597 
	C424.645782,301.000000 395.291534,301.000000 365.468658,301.000000 
M475.035492,85.118233 
	C467.578156,87.664848 463.522980,93.265442 463.156250,100.735840 
	C462.609802,111.867607 462.766174,123.053116 463.087646,134.202377 
	C463.363190,143.758881 471.306763,150.998337 480.756836,151.000671 
	C488.917603,151.002701 497.160736,150.271362 505.218964,151.180405 
	C516.040344,152.401108 527.185669,142.060364 530.023743,133.322556 
	C533.473755,122.700577 533.475525,111.868607 529.033081,101.781593 
	C526.429199,95.869247 523.450684,89.395950 516.145752,86.857384 
	C502.848938,82.236511 489.363586,83.797508 475.035492,85.118233 
z"/>
<path fill="#344365" opacity="1.000000" stroke="none" 
	d="
M839.468628,301.000000 
	C837.252014,300.332825 835.548950,299.261658 833.749023,299.061432 
	C817.030029,297.201874 800.744324,293.816986 786.142761,284.989624 
	C777.872070,279.989532 770.361328,273.486084 766.268127,264.866455 
	C762.020508,255.921646 758.576721,246.092392 757.359375,236.328522 
	C755.508606,221.484787 756.426147,206.393478 763.077087,192.438187 
	C767.160400,183.870636 772.707764,176.344620 781.128540,171.464783 
	C785.828979,168.740860 790.465698,165.657211 795.529541,163.855560 
	C812.503235,157.816513 830.057556,156.997635 847.897339,158.760559 
	C863.319824,160.284607 878.152344,163.691010 892.691895,171.444565 
	C893.173706,158.537003 894.354980,146.855103 885.300415,136.504013 
	C877.856079,127.993629 868.117310,126.018463 858.127502,124.041763 
	C841.986450,120.847885 826.396240,124.320961 811.351685,129.566864 
	C800.972900,133.185822 791.218933,138.603088 781.209412,143.267395 
	C779.749390,143.947708 778.421021,144.910400 776.313416,146.172623 
	C776.190247,143.851151 776.021362,142.125717 776.019165,140.400101 
	C775.998657,124.401001 776.072205,108.401413 775.957581,92.403107 
	C775.931335,88.736717 776.187256,86.203468 780.792480,85.385422 
	C784.056641,84.805603 786.890381,82.141060 790.112793,80.930382 
	C806.767395,74.673149 824.134216,71.820679 841.761658,69.879517 
	C865.022461,67.318016 887.861023,68.970886 909.910156,76.693848 
	C919.029663,79.888069 928.243591,84.145645 935.877014,89.943871 
	C947.953064,99.116623 954.403564,112.426071 956.937805,127.407364 
	C957.624634,131.467453 957.946167,135.636551 957.955261,139.756668 
	C958.032959,174.921234 957.779236,210.088211 958.125671,245.249542 
	C958.239258,256.778442 955.011230,267.105865 947.695740,275.351105 
	C940.700439,283.235352 931.668091,288.966736 920.800354,291.107819 
	C911.596619,292.921051 902.546021,295.522278 893.331604,297.267151 
	C887.674561,298.338409 881.830994,298.403168 876.083252,299.030396 
	C874.380127,299.216217 872.718018,299.777740 871.018555,300.583557 
	C860.645752,301.000000 850.291565,301.000000 839.468628,301.000000 
M829.235718,208.650482 
	C828.291626,209.801743 827.367615,210.970200 826.399902,212.101303 
	C821.906677,217.353256 820.099548,230.029160 823.397705,235.590866 
	C828.702759,244.536850 836.458435,250.132111 846.820374,252.047226 
	C858.603027,254.224899 870.343079,253.204697 881.803833,250.629425 
	C886.283325,249.622864 892.679749,248.372513 892.885986,241.658249 
	C893.223328,230.680145 893.078003,219.682129 892.845581,208.698654 
	C892.819397,207.460114 891.102051,205.450165 889.859314,205.169678 
	C877.689880,202.422974 865.325012,201.110672 852.868530,202.076965 
	C844.875244,202.697021 836.816284,203.620682 829.235718,208.650482 
z"/>
<path fill="#344365" opacity="1.000000" stroke="none" 
	d="
M1309.468628,301.000000 
	C1307.921143,300.335480 1306.920044,299.322357 1305.751099,299.061127 
	C1295.464844,296.762573 1285.058960,294.940918 1274.871948,292.276306 
	C1267.758057,290.415527 1260.866455,287.616241 1254.031738,284.850098 
	C1252.661865,284.295715 1251.155029,282.007507 1251.137329,280.502075 
	C1250.936768,263.342560 1251.005249,246.179825 1251.036255,229.018021 
	C1251.037964,228.110474 1251.348267,227.203491 1251.639160,225.619247 
	C1253.666992,227.126801 1255.048462,228.442123 1256.669067,229.311966 
	C1267.228516,234.979553 1277.359253,241.942017 1288.553223,245.808975 
	C1303.322754,250.911224 1318.934204,254.537781 1334.824097,250.886353 
	C1346.116943,248.291321 1351.798218,243.743408 1351.038940,233.262527 
	C1350.459961,225.270355 1344.259888,222.247101 1338.419067,220.213379 
	C1326.787720,216.163406 1314.666992,213.544769 1302.876099,209.919220 
	C1291.869995,206.534927 1281.065918,203.025162 1271.631592,195.559174 
	C1264.302856,189.759552 1258.214355,183.426743 1254.671021,174.998459 
	C1252.456909,169.732315 1251.089111,163.988205 1250.168213,158.324188 
	C1247.675415,142.991714 1249.135132,127.746452 1255.298950,113.615150 
	C1258.424194,106.450081 1264.042358,100.097633 1269.505981,94.293282 
	C1277.168457,86.153015 1287.101807,80.931549 1297.583374,77.365501 
	C1305.024292,74.833939 1312.885010,73.250351 1320.685547,72.122040 
	C1336.889526,69.778206 1353.065430,70.860352 1369.108521,73.983253 
	C1379.322266,75.971436 1388.908081,79.662941 1398.656494,83.319183 
	C1408.497314,87.010124 1409.527588,92.767868 1409.128418,101.383934 
	C1408.604736,112.689857 1409.011475,124.038383 1408.988159,135.368515 
	C1408.984497,137.118759 1408.821655,138.868652 1408.687866,141.496765 
	C1406.112549,140.126526 1404.312744,139.119232 1402.470215,138.196808 
	C1392.606812,133.258835 1382.958740,127.803398 1372.808960,123.545341 
	C1357.971802,117.320885 1342.444336,116.094971 1327.404907,122.472885 
	C1315.744873,127.417603 1314.243896,138.325241 1321.006470,147.874496 
	C1323.822876,151.851349 1329.809082,154.131775 1334.808105,155.898697 
	C1344.735840,159.407669 1355.026367,161.874359 1365.075684,165.059952 
	C1372.942627,167.553802 1381.229126,169.474884 1388.352783,173.415436 
	C1406.270386,183.326797 1418.106445,197.889206 1417.914551,219.550491 
	C1417.819580,230.257874 1419.265869,241.020355 1415.352783,251.617859 
	C1410.194824,265.587128 1401.656128,276.496277 1388.905518,283.975464 
	C1373.084839,293.255493 1355.703369,297.479309 1337.569214,299.041504 
	C1336.365601,299.145233 1335.208008,299.784637 1334.014526,300.587433 
	C1325.979126,301.000000 1317.958130,301.000000 1309.468628,301.000000 
z"/>
<path fill="#344365" opacity="1.000000" stroke="none" 
	d="
M657.468628,301.000000 
	C657.000000,201.312439 657.000000,101.624878 657.000000,1.468657 
	C678.354248,1.000000 699.708435,1.000000 721.531372,1.000000 
	C722.003601,99.027855 722.008057,197.055710 722.004517,295.083557 
	C722.004456,296.746063 721.908020,298.408539 721.928284,300.535522 
	C700.645752,301.000000 679.291565,301.000000 657.468628,301.000000 
z"/>
<path fill="#344365" opacity="1.000000" stroke="none" 
	d="
M2049.000000,294.531342 
	C2041.885254,295.000000 2034.770630,295.000000 2027.000000,295.000000 
	C2027.000000,292.413696 2027.000000,290.468628 2027.000000,288.523560 
	C2027.000000,258.531830 2027.083130,228.539703 2026.945435,198.548599 
	C2026.907959,190.373550 2025.526978,182.252426 2020.656128,175.457642 
	C2014.834351,167.336472 2006.928101,161.949036 1996.594727,162.110138 
	C1986.863770,162.261856 1977.037354,162.681427 1967.466797,164.271622 
	C1961.968872,165.185135 1956.896362,168.659561 1951.284302,171.134598 
	C1956.566162,185.502502 1954.860718,200.030609 1954.955322,214.396896 
	C1955.117432,239.055695 1955.000000,263.716339 1955.000000,288.376221 
	C1955.000000,290.334869 1955.000000,292.293518 1955.000000,294.964508 
	C1947.856323,294.964508 1941.244507,295.137726 1934.662598,294.773102 
	C1933.702881,294.719910 1932.135986,292.109039 1932.117554,290.665497 
	C1931.928345,275.838654 1932.000000,261.008484 1931.999756,246.179230 
	C1931.999512,230.850128 1932.344727,215.509781 1931.845947,200.196930 
	C1931.617188,193.174652 1930.256836,186.067810 1928.458984,179.250031 
	C1926.391113,171.408356 1913.003052,162.194855 1903.945679,162.075027 
	C1888.541870,161.871246 1873.084717,161.018753 1858.017334,165.857819 
	C1854.170288,167.093414 1852.883911,168.549133 1852.901367,172.622147 
	C1853.067017,211.110809 1853.000000,249.600494 1853.000000,288.089874 
	C1853.000000,290.075439 1853.000000,292.060974 1853.000000,294.522430 
	C1845.763062,294.522430 1838.870728,294.522430 1831.296021,294.522430 
	C1831.203369,292.778442 1831.013672,290.863831 1831.012939,288.949127 
	C1830.996338,245.794357 1831.055420,202.639420 1830.911255,159.485138 
	C1830.897583,155.383026 1831.966919,153.142532 1836.041992,151.915421 
	C1845.647339,149.023071 1854.963745,144.950745 1864.716553,142.815399 
	C1883.831665,138.630173 1903.183716,137.933746 1922.260254,143.338028 
	C1926.631226,144.576309 1930.459106,147.627365 1934.756226,149.270935 
	C1937.127563,150.177963 1940.168579,150.669388 1942.538940,150.014160 
	C1953.159790,147.078629 1963.454956,142.068665 1974.225708,140.765015 
	C1994.594971,138.299545 2015.445557,138.081421 2032.695435,151.774765 
	C2038.336548,156.252792 2041.569458,163.775879 2045.856934,169.938934 
	C2046.765991,171.245605 2047.470825,172.694275 2048.634766,174.038788 
	C2049.000000,214.020889 2049.000000,254.041794 2049.000000,294.531342 
z"/>
<path fill="#D1B118" opacity="1.000000" stroke="none" 
	d="
M350.832581,247.973267 
	C350.887665,265.336395 350.942749,282.699554 350.998901,300.531342 
	C325.645782,301.000000 300.291534,301.000000 274.424377,300.656372 
	C272.204834,299.086426 270.215729,298.116333 268.835083,296.594269 
	C254.235580,280.499390 239.733002,264.316589 225.645416,248.083313 
	C239.582199,247.944855 253.077271,247.881088 267.066223,247.859528 
	C295.317596,247.925552 323.075104,247.949417 350.832581,247.973267 
z"/>
<path fill="#907A11" opacity="1.000000" stroke="none" 
	d="
M225.203705,248.158035 
	C239.733002,264.316589 254.235580,280.499390 268.835083,296.594269 
	C270.215729,298.116333 272.204834,299.086426 273.955750,300.656372 
	C266.645752,301.000000 259.291504,301.000000 251.468628,301.000000 
	C248.590698,298.150208 246.223648,295.263336 243.763519,292.458099 
	C238.231369,286.149933 232.733337,279.808777 227.071060,273.618591 
	C221.350174,267.364380 215.420639,261.301422 209.642960,255.098389 
	C208.081558,253.422043 206.739410,251.541458 205.610413,249.395050 
	C211.955948,248.634949 217.987686,248.234406 224.315155,247.916229 
	C224.808487,248.051727 225.006104,248.104889 225.203705,248.158035 
z"/>
<path fill="#344365" opacity="1.000000" stroke="none" 
	d="
M1085.027100,125.965515 
	C1079.594971,127.541130 1074.581787,129.089767 1068.947754,130.830231 
	C1068.947754,184.548630 1068.947754,238.448502 1068.947754,292.660889 
	C1047.102539,292.660889 1025.882935,292.660889 1004.004761,292.660889 
	C1004.004761,290.385803 1004.004639,288.438690 1004.004639,286.491547 
	C1004.004578,224.331421 1004.053284,162.171188 1003.902100,100.011436 
	C1003.891296,95.571175 1005.008362,93.004181 1009.244202,91.277306 
	C1026.570312,84.213821 1044.253784,78.572426 1062.850586,75.911385 
	C1073.139160,74.439186 1083.290649,71.726402 1093.612549,70.841820 
	C1105.760010,69.800812 1118.091431,69.233330 1130.220337,70.126854 
	C1142.163086,71.006676 1154.087036,73.417183 1165.752563,76.253212 
	C1171.667358,77.691208 1177.140137,81.290337 1182.559937,84.358818 
	C1198.678467,93.484428 1205.074951,109.077248 1208.786987,125.927803 
	C1210.479614,133.611313 1210.868774,141.701691 1210.901245,149.611420 
	C1211.088867,195.272507 1210.994751,240.934753 1210.992065,286.596619 
	C1210.991577,292.986328 1210.981445,292.993561 1204.398926,292.995026 
	C1186.234131,292.999023 1168.066406,292.813416 1149.906616,293.115814 
	C1144.926880,293.198761 1143.887817,291.584686 1143.906494,286.898315 
	C1144.078857,243.403564 1143.709595,199.904755 1144.164551,156.414108 
	C1144.330322,140.556732 1134.145142,128.768250 1118.965088,125.301071 
	C1107.927856,122.780136 1096.567871,122.996094 1085.027100,125.965515 
z"/>
<path fill="#334265" opacity="1.000000" stroke="none" 
	d="
M1797.357544,208.613831 
	C1799.007935,226.803452 1796.791626,243.916168 1789.911255,260.539307 
	C1785.138916,272.069427 1777.969238,281.485443 1767.839600,288.390961 
	C1759.050659,294.382538 1748.938354,298.154114 1738.370605,298.766968 
	C1726.524170,299.453949 1714.607178,299.716919 1702.818115,296.252045 
	C1687.242554,291.674377 1674.848267,282.882629 1667.740356,268.630005 
	C1662.133545,257.387268 1658.844482,245.082657 1657.750610,232.144318 
	C1656.291504,214.886444 1657.432861,198.206940 1662.885742,181.729691 
	C1666.783691,169.951309 1672.835938,159.578934 1683.095703,152.649170 
	C1694.260742,145.107956 1706.527466,140.025223 1720.520996,139.909653 
	C1734.885864,139.791016 1749.047241,140.086487 1762.143311,147.055191 
	C1775.710938,154.274780 1785.699585,164.473587 1790.803101,179.377380 
	C1794.028320,188.796280 1796.964233,198.155426 1797.357544,208.613831 
M1770.857666,245.070175 
	C1775.156982,226.180374 1776.054199,207.438492 1769.124634,188.848480 
	C1764.534058,176.532837 1756.786011,167.343536 1743.831787,164.046814 
	C1737.373901,162.403336 1730.452881,162.443130 1723.722412,162.034225 
	C1706.562988,160.991760 1691.979736,172.322800 1686.187378,188.048035 
	C1678.654419,208.498672 1678.945923,229.106476 1685.962402,249.812027 
	C1689.849365,261.282806 1696.544067,269.892517 1707.861816,274.309601 
	C1717.097046,277.913910 1726.683716,278.886230 1736.605103,277.071960 
	C1746.900513,275.189331 1755.981934,271.147980 1762.045410,262.498840 
	C1765.594849,257.435669 1767.777588,251.414261 1770.857666,245.070175 
z"/>
<path fill="#334265" opacity="1.000000" stroke="none" 
	d="
M1517.308838,244.501404 
	C1516.444214,233.369583 1515.154663,222.637405 1515.147095,211.904343 
	C1515.137329,197.861404 1518.847778,184.675827 1525.120850,171.903351 
	C1528.771851,164.469772 1533.783813,158.582184 1539.858032,153.745758 
	C1550.157227,145.545471 1562.572510,141.246872 1575.508545,140.232651 
	C1593.265259,138.840439 1610.958252,140.008621 1627.802490,146.993698 
	C1630.887451,148.272995 1632.198730,149.891541 1632.062744,153.263626 
	C1631.830933,159.021805 1631.999023,164.796097 1631.999023,171.176010 
	C1624.763916,168.903214 1618.445923,166.485764 1611.920044,164.955582 
	C1596.771484,161.403564 1581.679565,160.416946 1566.552612,165.900894 
	C1550.322998,171.784683 1542.857910,184.374039 1540.212280,200.104568 
	C1537.956055,213.519302 1537.704346,227.216644 1541.044189,240.619827 
	C1544.568359,254.763153 1551.158691,266.050354 1566.457031,270.904419 
	C1583.755371,276.393066 1600.574463,274.932129 1617.537964,270.239990 
	C1622.118286,268.973083 1626.686646,267.662933 1631.944092,266.179718 
	C1631.944092,273.642151 1632.110229,280.742249 1631.766846,287.817627 
	C1631.714722,288.889648 1629.423584,290.437744 1627.948242,290.760345 
	C1618.929321,292.732483 1609.900269,294.780304 1600.773682,296.109619 
	C1586.189331,298.234009 1571.899170,296.990356 1557.645874,292.605042 
	C1549.814331,290.195465 1543.184204,286.404144 1537.153320,281.297180 
	C1525.896362,271.764801 1521.110474,258.610626 1517.308838,244.501404 
z"/>
<path fill="#344365" opacity="1.000000" stroke="none" 
	d="
M1450.888916,294.103699 
	C1450.398560,284.329437 1450.155518,274.877441 1450.192505,265.426544 
	C1450.195679,264.621887 1452.051392,263.150146 1453.069702,263.129456 
	C1462.049805,262.947205 1471.037598,262.929321 1480.015869,263.154266 
	C1481.026123,263.179565 1482.819824,264.987946 1482.846802,266.006561 
	C1483.075073,274.651764 1483.057129,283.307190 1482.871582,291.954376 
	C1482.849731,292.967712 1481.368652,294.812500 1480.559814,294.814911 
	C1470.777100,294.844299 1460.993652,294.599609 1450.888916,294.103699 
z"/>
<path fill="#F0CB19" opacity="1.000000" stroke="none" 
	d="
M350.904694,247.511230 
	C323.075104,247.949417 295.317596,247.925552 267.065857,247.402954 
	C266.572327,219.295746 266.573029,191.687317 267.065002,164.009857 
	C295.367126,163.879013 323.177917,163.817169 351.192627,163.843842 
	C351.396515,163.932358 351.834442,164.009079 351.834412,164.009079 
	C351.889374,167.337799 351.981476,170.666382 351.991791,173.995255 
	C352.015869,181.752060 357.340973,188.135620 364.918518,190.103287 
	C369.700867,191.345123 372.919769,188.752441 376.146545,186.255020 
	C378.930084,184.100677 381.126160,181.180756 383.931793,179.062729 
	C399.020538,167.672165 414.929657,176.313461 420.870758,191.035645 
	C424.787811,200.742203 423.265686,209.591370 416.625824,218.405975 
	C412.194855,224.288177 406.465576,227.173004 400.481476,227.544189 
	C394.768402,227.898590 388.473083,225.383575 383.113129,222.748138 
	C379.180237,220.814362 376.339874,216.653488 373.022186,213.475174 
	C369.775116,210.364517 365.702423,209.961151 362.058868,211.672043 
	C356.462189,214.300079 351.168976,217.788635 351.028442,225.055283 
	C350.886719,232.384171 350.984161,239.717682 350.904694,247.511230 
z"/>
<path fill="#0CCBFE" opacity="1.000000" stroke="none" 
	d="
M188.098007,80.891403 
	C191.821136,84.852058 195.421814,88.937363 199.296844,92.743378 
	C204.754684,98.104004 210.602097,103.076118 215.937454,108.551033 
	C221.240616,113.992897 226.011978,119.949104 231.210953,125.497589 
	C235.790817,130.385330 240.600021,135.061462 245.388535,139.748734 
	C247.249161,141.570038 249.330704,143.165680 251.647354,145.389801 
	C252.447998,146.630203 252.808441,147.857956 253.394547,147.977280 
	C257.559082,148.825119 261.769806,149.446213 265.972534,150.594040 
	C266.036377,155.031265 266.093506,159.014008 266.067993,163.196533 
	C265.985382,163.396332 265.882050,163.815948 265.421936,163.847519 
	C260.634094,163.902039 256.306427,163.939453 251.978699,163.945618 
	C218.021149,163.993942 184.063614,164.036285 149.828247,164.017517 
	C149.179382,163.874680 148.808334,163.794785 148.300934,163.396637 
	C146.414902,160.871567 144.776993,158.564331 142.898285,156.473480 
	C124.061928,135.510101 105.161301,114.604462 86.343796,93.624237 
	C82.931717,89.820000 79.814468,85.751312 76.995872,81.730560 
	C80.085167,81.538101 82.739632,81.318840 85.394257,81.316849 
	C117.311920,81.292862 149.229614,81.309525 181.147293,81.283173 
	C183.464294,81.281258 185.781113,81.027870 188.098007,80.891403 
z"/>
<path fill="#B62551" opacity="1.000000" stroke="none" 
	d="
M266.150635,162.996735 
	C266.093506,159.014008 266.036377,155.031265 266.262207,150.407120 
	C276.327026,144.343918 279.816101,135.842087 278.937225,125.015762 
	C278.591278,120.753929 278.807739,116.446449 278.828766,111.680099 
	C278.830231,100.836105 278.771057,90.471764 278.821564,80.064896 
	C278.931274,80.022369 279.153809,79.945885 279.612610,79.961105 
	C303.996033,79.969940 327.920685,79.963562 351.845337,79.957184 
	C351.884186,107.338272 351.923065,134.719360 351.734985,162.660507 
	C351.295624,163.360657 351.122528,163.538910 350.988708,163.755325 
	C323.177917,163.817169 295.367126,163.879013 267.150635,163.935989 
	C266.744965,163.931137 266.938843,164.039261 266.853271,163.834656 
	C266.599640,163.382294 266.393951,163.171188 266.150635,162.996735 
z"/>
<path fill="#00708F" opacity="1.000000" stroke="none" 
	d="
M187.935852,80.591660 
	C185.781113,81.027870 183.464294,81.281258 181.147293,81.283173 
	C149.229614,81.309525 117.311920,81.292862 85.394257,81.316849 
	C82.739632,81.318840 80.085167,81.538101 76.721024,81.759750 
	C75.637810,81.871704 75.264198,81.880333 74.850891,81.558960 
	C74.283073,80.400330 73.860184,79.476631 73.210663,78.757706 
	C66.202019,71.000137 59.214565,63.222122 52.110817,55.552040 
	C38.960232,41.353054 38.758686,35.627689 51.106747,21.307129 
	C52.520561,20.897720 53.934380,20.488310 56.030003,20.389460 
	C78.484566,20.768932 100.257324,20.837847 122.030083,20.906763 
	C125.340813,21.607409 129.635223,21.231199 131.788879,23.198519 
	C140.283798,30.958506 148.141968,39.419918 156.168869,47.686653 
	C164.449310,56.214485 172.642075,64.827393 180.893555,73.383453 
	C183.149353,75.722519 185.478302,77.991028 187.935852,80.591660 
z"/>
<path fill="#EB2863" opacity="1.000000" stroke="none" 
	d="
M351.906128,79.494705 
	C327.920685,79.963562 303.996033,79.969940 279.552063,79.500290 
	C278.997131,68.103020 279.327393,57.164661 278.817413,46.265614 
	C278.357361,36.433163 279.239471,27.475203 288.107361,21.284882 
	C289.503052,20.859818 290.898712,20.434753 293.003632,20.319279 
	C295.857910,20.771978 298.002441,21.029806 300.148132,21.040024 
	C317.104004,21.120760 334.060120,21.154287 351.133484,21.350056 
	C351.423431,21.683315 351.617279,21.843159 351.832336,21.977304 
	C351.877197,40.995613 351.922058,60.013920 351.906128,79.494705 
z"/>
<path fill="#4499B0" opacity="1.000000" stroke="none" 
	d="
M148.437302,163.714905 
	C148.808334,163.794785 149.179382,163.874680 149.968536,164.306396 
	C153.576859,168.266190 156.746613,171.892471 159.960876,175.478836 
	C172.040146,188.956421 184.195328,202.366547 196.202591,215.907883 
	C205.566742,226.468414 214.753723,237.186050 224.019440,247.833862 
	C217.987686,248.234406 211.955948,248.634949 205.461472,249.098892 
	C202.199799,245.826828 199.480927,242.419891 196.582275,239.173462 
	C192.694778,234.819565 188.671280,230.587021 184.700760,226.307404 
	C177.805206,218.875046 170.902527,211.449249 164.008408,204.015549 
	C157.567566,197.070618 151.015640,190.223831 144.734619,183.137085 
	C139.724457,177.484238 135.048386,171.535278 130.545959,165.372482 
	C136.724365,164.589783 142.580841,164.152344 148.437302,163.714905 
z"/>
<path fill="#088CB0" opacity="1.000000" stroke="none" 
	d="
M148.300934,163.396637 
	C142.580841,164.152344 136.724365,164.589783 130.397156,165.048523 
	C119.576889,153.623154 109.249565,142.156250 98.863754,130.742599 
	C95.901047,127.486664 92.690063,124.456505 89.730881,121.197556 
	C84.242470,115.153160 78.930443,108.947777 73.406265,102.936905 
	C67.448128,96.453857 61.331055,90.116875 55.663834,83.365417 
	C62.326435,82.639427 68.608513,82.264191 74.890594,81.888962 
	C75.264198,81.880333 75.637810,81.871704 76.286263,81.833893 
	C79.814468,85.751312 82.931717,89.820000 86.343796,93.624237 
	C105.161301,114.604462 124.061928,135.510101 142.898285,156.473480 
	C144.776993,158.564331 146.414902,160.871567 148.300934,163.396637 
z"/>
<path fill="#004E63" opacity="1.000000" stroke="none" 
	d="
M74.850891,81.558960 
	C68.608513,82.264191 62.326435,82.639427 55.586079,83.047043 
	C49.240215,76.704674 43.340630,70.340950 37.469437,63.951134 
	C33.810032,59.968475 30.061245,56.057549 26.584539,51.919529 
	C18.672737,42.502804 21.105169,28.219652 28.853365,23.660410 
	C31.301168,22.220062 34.340591,21.381149 37.187870,21.118170 
	C41.480171,20.721724 45.841545,21.073122 50.640152,21.206886 
	C38.758686,35.627689 38.960232,41.353054 52.110817,55.552040 
	C59.214565,63.222122 66.202019,71.000137 73.210663,78.757706 
	C73.860184,79.476631 74.283073,80.400330 74.850891,81.558960 
z"/>
<path fill="#A31C45" opacity="1.000000" stroke="none" 
	d="
M287.642700,21.178885 
	C279.239471,27.475203 278.357361,36.433163 278.817413,46.265614 
	C279.327393,57.164661 278.997131,68.103020 279.093292,79.485077 
	C279.153809,79.945885 278.931274,80.022369 278.383301,80.035835 
	C271.278046,80.016747 264.720734,79.984192 258.163422,79.951630 
	C258.110870,65.971626 257.186157,51.922352 258.289246,38.034142 
	C259.130646,27.440624 263.732880,20.278488 275.695862,20.969505 
	C279.512543,21.189964 283.350067,21.048660 287.642700,21.178885 
z"/>
<path fill="#55001A" opacity="1.000000" stroke="none" 
	d="
M278.768097,112.159752 
	C278.807739,116.446449 278.591278,120.753929 278.937225,125.015762 
	C279.816101,135.842087 276.327026,144.343918 266.255493,149.952621 
	C261.769806,149.446213 257.559082,148.825119 253.394547,147.977280 
	C252.808441,147.857956 252.447998,146.630203 251.954666,145.534698 
	C256.216003,141.325378 258.568512,136.858017 258.106384,130.786057 
	C257.654236,124.845711 258.046265,118.841103 258.565430,112.412331 
	C265.631409,112.026550 272.199738,112.093155 278.768097,112.159752 
z"/>
<path fill="#7D1937" opacity="1.000000" stroke="none" 
	d="
M278.828766,111.680099 
	C272.199738,112.093155 265.631409,112.026550 258.606750,111.940353 
	C258.118958,101.577286 258.087433,91.233803 258.109680,80.420975 
	C264.720734,79.984192 271.278046,80.016747 278.273621,80.078362 
	C278.771057,90.471764 278.830231,100.836105 278.828766,111.680099 
z"/>
<path fill="#7FB8C7" opacity="1.000000" stroke="none" 
	d="
M121.800255,20.541080 
	C100.257324,20.837847 78.484566,20.768932 56.400970,20.430439 
	C77.916893,20.165707 99.743660,20.170553 121.800255,20.541080 
z"/>
<path fill="#F493B0" opacity="1.000000" stroke="none" 
	d="
M351.016144,21.202333 
	C334.060120,21.154287 317.104004,21.120760 300.148132,21.040024 
	C298.002441,21.029806 295.857910,20.771978 293.372406,20.393917 
	C312.541595,20.162121 332.051270,20.165276 351.488464,20.615097 
	C351.416016,21.061764 351.016144,21.202333 351.016144,21.202333 
z"/>
<path fill="#C24546" opacity="1.000000" stroke="none" 
	d="
M351.192627,163.843842 
	C351.122528,163.538910 351.295624,163.360657 351.670959,163.127441 
	C351.833923,163.034332 351.934387,163.521957 351.884399,163.765518 
	C351.834442,164.009079 351.396515,163.932358 351.192627,163.843842 
z"/>
<path fill="#ED366D" opacity="1.000000" stroke="none" 
	d="
M351.133484,21.350056 
	C351.016144,21.202333 351.416016,21.061764 351.624817,21.025833 
	C351.871643,21.154520 351.909668,21.319139 351.890015,21.730530 
	C351.617279,21.843159 351.423431,21.683315 351.133484,21.350056 
z"/>
<path fill="#000000" opacity="1.000000" stroke="none" 
	d="
M475.443451,85.063812 
	C489.363586,83.797508 502.848938,82.236511 516.145752,86.857384 
	C523.450684,89.395950 526.429199,95.869247 529.033081,101.781593 
	C533.475525,111.868607 533.473755,122.700577 530.023743,133.322556 
	C527.185669,142.060364 516.040344,152.401108 505.218964,151.180405 
	C497.160736,150.271362 488.917603,151.002701 480.756836,151.000671 
	C471.306763,150.998337 463.363190,143.758881 463.087646,134.202377 
	C462.766174,123.053116 462.609802,111.867607 463.156250,100.735840 
	C463.522980,93.265442 467.578156,87.664848 475.443451,85.063812 
z"/>
<path fill="#000000" opacity="1.000000" stroke="none" 
	d="
M829.512634,208.405975 
	C836.816284,203.620682 844.875244,202.697021 852.868530,202.076965 
	C865.325012,201.110672 877.689880,202.422974 889.859314,205.169678 
	C891.102051,205.450165 892.819397,207.460114 892.845581,208.698654 
	C893.078003,219.682129 893.223328,230.680145 892.885986,241.658249 
	C892.679749,248.372513 886.283325,249.622864 881.803833,250.629425 
	C870.343079,253.204697 858.603027,254.224899 846.820374,252.047226 
	C836.458435,250.132111 828.702759,244.536850 823.397705,235.590866 
	C820.099548,230.029160 821.906677,217.353256 826.399902,212.101303 
	C827.367615,210.970200 828.291626,209.801743 829.512634,208.405975 
z"/>
<path fill="#62DDFE" opacity="1.000000" stroke="none" 
	d="
M224.315140,247.916229 
	C214.753723,237.186050 205.566742,226.468414 196.202591,215.907883 
	C184.195328,202.366547 172.040146,188.956421 159.960876,175.478836 
	C156.746613,171.892471 153.576859,168.266190 150.246368,164.369354 
	C184.063614,164.036285 218.021149,163.993942 251.978699,163.945618 
	C256.306427,163.939453 260.634094,163.902039 265.669800,163.982513 
	C266.564819,164.070389 266.751831,164.054825 266.938843,164.039261 
	C266.938843,164.039261 266.744965,163.931137 266.659332,164.005005 
	C266.573029,191.687317 266.572327,219.295746 266.571960,247.360764 
	C253.077271,247.881088 239.582199,247.944855 225.645416,248.083313 
	C225.006104,248.104889 224.808487,248.051727 224.315140,247.916229 
z"/>
<path fill="#000000" opacity="1.000000" stroke="none" 
	d="
M1770.716431,245.447067 
	C1767.777588,251.414261 1765.594849,257.435669 1762.045410,262.498840 
	C1755.981934,271.147980 1746.900513,275.189331 1736.605103,277.071960 
	C1726.683716,278.886230 1717.097046,277.913910 1707.861816,274.309601 
	C1696.544067,269.892517 1689.849365,261.282806 1685.962402,249.812027 
	C1678.945923,229.106476 1678.654419,208.498672 1686.187378,188.048035 
	C1691.979736,172.322800 1706.562988,160.991760 1723.722412,162.034225 
	C1730.452881,162.443130 1737.373901,162.403336 1743.831787,164.046814 
	C1756.786011,167.343536 1764.534058,176.532837 1769.124634,188.848480 
	C1776.054199,207.438492 1775.156982,226.180374 1770.716431,245.447067 
z"/>
<path fill="#C24546" opacity="1.000000" stroke="none" 
	d="
M266.853271,163.834656 
	C266.751831,164.054825 266.564819,164.070389 266.129944,163.950958 
	C265.882050,163.815948 265.985382,163.396332 266.067993,163.196533 
	C266.393951,163.171188 266.599640,163.382294 266.853271,163.834656 
z"/>
</svg>