<svg xmlns="http://www.w3.org/2000/svg" viewBox="0 0 24 24" width="24" height="24" fill="none" stroke="white" stroke-width="2" stroke-linecap="round" stroke-linejoin="round">
  <circle cx="12" cy="12" r="3"></circle>
  <path d="M19.4 15a1.6 1.6 0 0 0 .3 1.7l.1.1a2 2 0 1 1-2.8 2.8l-.1-.1a1.6 1.6 0 0 0-1.7-.3 1.6 1.6 0 0 0-1 1.5V21a2 2 0 1 1-4 0v-.1a1.6 1.6 0 0 0-1-1.5 1.6 1.6 0 0 0-1.7.3l-.1.1a2 2 0 1 1-2.8-2.8l.1-.1a1.6 1.6 0 0 0 .3-1.7 1.6 1.6 0 0 0-1.5-1H3a2 2 0 1 1 0-4h.1a1.6 1.6 0 0 0 1.5-1 1.6 1.6 0 0 0-.3-1.7l-.1-.1a2 2 0 1 1 2.8-2.8l.1.1a1.6 1.6 0 0 0 1.7.3h.1A1.6 1.6 0 0 0 10 3.1V3a2 2 0 1 1 4 0v.1a1.6 1.6 0 0 0 1 1.5h.1a1.6 1.6 0 0 0 1.7-.3l.1-.1a2 2 0 1 1 2.8 2.8l-.1.1a1.6 1.6 0 0 0-.3 1.7v.1A1.6 1.6 0 0 0 20.9 10H21a2 2 0 1 1 0 4h-.1a1.6 1.6 0 0 0-1.5 1z"></path>
</svg>
